G04 EAGLE Gerber RS-274X export*
G75*
%MOMM*%
%FSLAX34Y34*%
%LPD*%
%INBottom Copper*%
%IPPOS*%
%AMOC8*
5,1,8,0,0,1.08239X$1,22.5*%
G01*
%ADD10C,1.676400*%
%ADD11C,1.524000*%
%ADD12P,1.429621X8X337.500000*%
%ADD13P,1.429621X8X22.500000*%
%ADD14R,1.524000X1.524000*%
%ADD15P,1.429621X8X292.500000*%
%ADD16P,1.429621X8X112.500000*%
%ADD17C,1.981200*%
%ADD18C,2.540000*%
%ADD19C,1.320800*%
%ADD20P,1.429621X8X202.500000*%
%ADD21C,1.270000*%
%ADD22C,1.016000*%


D10*
X-353060Y-166370D02*
X-353060Y-149606D01*
X-327660Y-149606D02*
X-327660Y-166370D01*
X-302260Y-166370D02*
X-302260Y-149606D01*
X-276860Y-149606D02*
X-276860Y-166370D01*
X-251460Y-166370D02*
X-251460Y-149606D01*
X-226060Y-149606D02*
X-226060Y-166370D01*
X-200660Y-166370D02*
X-200660Y-149606D01*
X-175260Y-149606D02*
X-175260Y-166370D01*
X-149860Y-166370D02*
X-149860Y-149606D01*
X-124460Y-149606D02*
X-124460Y-166370D01*
X-99060Y-166370D02*
X-99060Y-149606D01*
X-73660Y-149606D02*
X-73660Y-166370D01*
X-48260Y-166370D02*
X-48260Y-149606D01*
X-22860Y-149606D02*
X-22860Y-166370D01*
X2540Y-166370D02*
X2540Y-149606D01*
X2540Y113030D02*
X2540Y129794D01*
X-22860Y129794D02*
X-22860Y113030D01*
X-48260Y113030D02*
X-48260Y129794D01*
X-73660Y129794D02*
X-73660Y113030D01*
X-99060Y113030D02*
X-99060Y129794D01*
X-124460Y129794D02*
X-124460Y113030D01*
X-149860Y113030D02*
X-149860Y129794D01*
X-175260Y129794D02*
X-175260Y113030D01*
X-200660Y113030D02*
X-200660Y129794D01*
X-226060Y129794D02*
X-226060Y113030D01*
X-251460Y113030D02*
X-251460Y129794D01*
X-276860Y129794D02*
X-276860Y113030D01*
X-302260Y113030D02*
X-302260Y129794D01*
X-327660Y129794D02*
X-327660Y113030D01*
X-353060Y113030D02*
X-353060Y129794D01*
D11*
X-385826Y461394D02*
X-385826Y476634D01*
X-360426Y476634D02*
X-360426Y461394D01*
X-335026Y461394D02*
X-335026Y476634D01*
X-309626Y476634D02*
X-309626Y461394D01*
X-284226Y461394D02*
X-284226Y476634D01*
X-425926Y230434D02*
X-425926Y215194D01*
X-400526Y215194D02*
X-400526Y230434D01*
X-375126Y230434D02*
X-375126Y215194D01*
X-349726Y215194D02*
X-349726Y230434D01*
X-324326Y230434D02*
X-324326Y215194D01*
X-298926Y215194D02*
X-298926Y230434D01*
X-273526Y230434D02*
X-273526Y215194D01*
D10*
X-153162Y202184D02*
X-136398Y202184D01*
X-51562Y202184D02*
X-34798Y202184D01*
D12*
X-428325Y-194824D03*
X-356483Y-266666D03*
D13*
X210058Y-128016D03*
X260858Y-128016D03*
D14*
X229470Y463230D03*
X179470Y463230D03*
X281470Y169230D03*
X127470Y169230D03*
D15*
X-189738Y-223774D03*
X-189738Y-325374D03*
D16*
X175006Y-227076D03*
X175006Y-125476D03*
D17*
X175768Y-261112D02*
X175768Y-280924D01*
X226060Y-280924D02*
X226060Y-261112D01*
X44450Y-260350D02*
X44450Y-280162D01*
X94742Y-280162D02*
X94742Y-260350D01*
X-127000Y-260858D02*
X-127000Y-280670D01*
X-76708Y-280670D02*
X-76708Y-260858D01*
X-293116Y-261112D02*
X-293116Y-280924D01*
X-242824Y-280924D02*
X-242824Y-261112D01*
X265938Y526034D02*
X265938Y545846D01*
X215646Y545846D02*
X215646Y526034D01*
X-198628Y524764D02*
X-198628Y544576D01*
X-248920Y544576D02*
X-248920Y524764D01*
X-96012Y272796D02*
X-96012Y252984D01*
X-36322Y273304D02*
X-36322Y293116D01*
X-155702Y293116D02*
X-155702Y273304D01*
X-155702Y395224D02*
X-155702Y415036D01*
X-36322Y415036D02*
X-36322Y395224D01*
D18*
X114808Y537972D02*
X114808Y563372D01*
X-135636Y563372D02*
X-135636Y537972D01*
D19*
X59436Y216916D02*
X59436Y203708D01*
X34036Y203708D02*
X34036Y216916D01*
X84836Y216916D02*
X84836Y203708D01*
D15*
X-24892Y-241046D03*
X-24892Y-342646D03*
D20*
X0Y165608D03*
X-101600Y165608D03*
D21*
X-327093Y154208D02*
X-375126Y202240D01*
X-375126Y222814D01*
X-327660Y153641D02*
X-327660Y121412D01*
X-327660Y153641D02*
X-327093Y154208D01*
X-300787Y158127D02*
X-349726Y207066D01*
X-349726Y222814D01*
X-302260Y156654D02*
X-302260Y121412D01*
X-302260Y156654D02*
X-300787Y158127D01*
X-265395Y152146D02*
X-324326Y211077D01*
X-324326Y222814D01*
X-265395Y152146D02*
X-242201Y152146D01*
X-226060Y136005D01*
X-226060Y121412D01*
X-43180Y202184D02*
X-39916Y205448D01*
X-36322Y209042D02*
X-36322Y283210D01*
X-36322Y209042D02*
X-43180Y202184D01*
X27178Y203454D02*
X34036Y210312D01*
X27178Y203454D02*
X-41910Y203454D01*
X-43180Y202184D01*
D22*
X265938Y484124D02*
X266660Y483402D01*
X265938Y484124D02*
X265938Y535940D01*
X266660Y483402D02*
X246488Y463230D01*
X229470Y463230D01*
D21*
X-73930Y345440D02*
X-74803Y346313D01*
X-96012Y325104D01*
X-96012Y262890D01*
X111680Y345440D02*
X229470Y463230D01*
X111680Y345440D02*
X-73930Y345440D01*
X260858Y-128016D02*
X260858Y-188976D01*
X260858Y-258826D01*
X247396Y-272288D01*
X246126Y-271018D01*
X226060Y-271018D01*
X-19812Y-161036D02*
X-22860Y-157988D01*
X-19812Y-161036D02*
X-19812Y-175629D01*
X-6465Y-188976D01*
X260858Y-188976D01*
X261658Y149418D02*
X281470Y169230D01*
X261658Y149418D02*
X261658Y-127216D01*
X260858Y-128016D01*
X84836Y-50292D02*
X84836Y210312D01*
X84836Y-50292D02*
X7874Y-127254D01*
X-6719Y-127254D01*
X-19812Y-140347D01*
X-19812Y-154940D01*
X-22860Y-157988D01*
X-48006Y-228346D02*
X-156070Y-228346D01*
X-181216Y-203200D01*
X-321818Y-203200D02*
X-322441Y-203200D01*
X-321818Y-203200D02*
X-181216Y-203200D01*
X-35306Y-241046D02*
X-24892Y-241046D01*
X-35306Y-241046D02*
X-48006Y-228346D01*
X-289490Y-50292D02*
X-386697Y-147499D01*
X-386697Y-173990D01*
X-289490Y-50292D02*
X-271561Y-50292D01*
X-127508Y118364D02*
X-124460Y121412D01*
X-127508Y118364D02*
X-127508Y93761D01*
X-271561Y-50292D01*
X-386697Y-173990D02*
X-357487Y-203200D01*
X-322441Y-203200D01*
D22*
X-179578Y117094D02*
X-175260Y121412D01*
D21*
X-428325Y-131653D02*
X-428325Y-194824D01*
X-178308Y118364D02*
X-175260Y121412D01*
X-306324Y-9652D02*
X-428325Y-131653D01*
X-306324Y-9652D02*
X-288394Y-9652D01*
X-178308Y100435D02*
X-178308Y118364D01*
X-178308Y100435D02*
X-288394Y-9652D01*
X-175260Y121412D02*
X-173228Y123444D01*
D22*
X-171958Y124714D02*
X-175260Y121412D01*
X-171958Y124714D02*
X-171958Y137511D01*
X-143861Y165608D01*
X-101600Y165608D01*
D21*
X127470Y169230D02*
X127470Y76238D01*
X211582Y-7874D01*
X211582Y-126492D01*
X210058Y-128016D01*
X207010Y-124968D01*
X96012Y-124968D01*
X62992Y-157988D02*
X2540Y-157988D01*
X62992Y-157988D02*
X96012Y-124968D01*
X-155702Y213106D02*
X-155702Y283210D01*
X-155702Y213106D02*
X-144780Y202184D01*
X-60198Y303006D02*
X-46212Y316992D01*
X-99429Y202184D02*
X-144780Y202184D01*
X-99429Y202184D02*
X-60198Y241415D01*
X127254Y273698D02*
X127254Y169446D01*
X127470Y169230D01*
X-60198Y241415D02*
X-60198Y303006D01*
X83960Y316992D02*
X127254Y273698D01*
X83960Y316992D02*
X-46212Y316992D01*
X-297468Y-266666D02*
X-356483Y-266666D01*
X-297468Y-266666D02*
X-293116Y-271018D01*
X-189738Y-325374D02*
X-181610Y-325374D01*
X-127000Y-270764D01*
X175006Y-227076D02*
X175768Y-227838D01*
X175768Y-271018D01*
X-121412Y-161036D02*
X-124460Y-157988D01*
X-121412Y-161036D02*
X-121412Y-175629D01*
X-91047Y-205994D01*
X-22606Y-205994D01*
X41656Y-270256D01*
X44450Y-270256D01*
X-239014Y-262636D02*
X-242824Y-266446D01*
X-242824Y-271018D01*
X-242824Y-312166D01*
X-208026Y-346964D01*
X-106680Y-346964D01*
X-76708Y-316992D01*
X-76708Y-270764D01*
X-203708Y118364D02*
X-200660Y121412D01*
X-203708Y118364D02*
X-203708Y103771D01*
X-296811Y10668D01*
X-315757Y10668D01*
X-448900Y-122475D01*
X-448900Y-221407D01*
X-353822Y-316484D01*
X-247142Y-316484D01*
X-242824Y-312166D01*
X-298926Y219678D02*
X-298926Y222814D01*
X-203708Y124460D02*
X-200660Y121412D01*
X-264583Y252024D02*
X-282469Y252024D01*
X-295116Y239377D01*
X-295116Y223488D01*
X-298926Y219678D01*
X-203708Y191149D02*
X-203708Y124460D01*
X-203708Y191149D02*
X-264583Y252024D01*
X-189992Y-223520D02*
X-189738Y-223774D01*
X-152908Y118364D02*
X-149860Y121412D01*
X-297907Y-29972D02*
X-407018Y-139082D01*
X-297907Y-29972D02*
X-279978Y-29972D01*
X-152908Y97098D02*
X-152908Y118364D01*
X-152908Y97098D02*
X-279978Y-29972D01*
X-407018Y-139082D02*
X-407018Y-186834D01*
X-370332Y-223520D02*
X-189992Y-223520D01*
X-370332Y-223520D02*
X-407018Y-186834D01*
X22352Y-342646D02*
X94742Y-270256D01*
X22352Y-342646D02*
X-24892Y-342646D01*
X179470Y463230D02*
X179404Y463296D01*
X48006Y463296D01*
X-39370Y550672D01*
X-135636Y550672D01*
X-151638Y534670D01*
X-198628Y534670D01*
X129540Y535940D02*
X215646Y535940D01*
X129540Y535940D02*
X114808Y550672D01*
X-36322Y405130D02*
X-146812Y474472D01*
X-206248Y475742D01*
X-247984Y501534D01*
X-248920Y534670D01*
D22*
X0Y165608D02*
X30988Y165608D01*
X50800Y185420D02*
X55626Y185420D01*
X59436Y189230D01*
X59436Y210312D01*
X50800Y185420D02*
X30988Y165608D01*
M02*
