G04 EAGLE Gerber RS-274X export*
G75*
%MOMM*%
%FSLAX34Y34*%
%LPD*%
%INTop Copper*%
%IPPOS*%
%AMOC8*
5,1,8,0,0,1.08239X$1,22.5*%
G01*
%ADD10C,0.130000*%
%ADD11C,0.152400*%
%ADD12C,1.676400*%
%ADD13C,1.524000*%
%ADD14P,1.429621X8X337.500000*%
%ADD15P,1.429621X8X22.500000*%
%ADD16R,1.524000X1.524000*%
%ADD17P,1.429621X8X292.500000*%
%ADD18P,1.429621X8X112.500000*%
%ADD19C,1.981200*%
%ADD20C,2.540000*%
%ADD21C,1.320800*%
%ADD22P,1.429621X8X202.500000*%


D10*
X-469646Y-369316D02*
X-469646Y-435552D01*
X311912Y-435552D02*
X311912Y-371348D01*
X311262Y-416052D02*
X-468996Y-416052D01*
X-443646Y-412860D01*
X-443646Y-419244D01*
X-468996Y-416052D01*
X-443646Y-414752D01*
X-443646Y-417352D02*
X-468996Y-416052D01*
X-443646Y-413452D01*
X-443646Y-418652D02*
X-468996Y-416052D01*
X285912Y-412860D02*
X311262Y-416052D01*
X285912Y-412860D02*
X285912Y-419244D01*
X311262Y-416052D01*
X285912Y-414752D01*
X285912Y-417352D02*
X311262Y-416052D01*
X285912Y-413452D01*
X285912Y-418652D02*
X311262Y-416052D01*
D11*
X-110015Y-395095D02*
X-110015Y-393289D01*
X-100984Y-393289D01*
X-105499Y-409545D01*
X-94384Y-405029D02*
X-94382Y-404896D01*
X-94376Y-404764D01*
X-94366Y-404632D01*
X-94353Y-404500D01*
X-94335Y-404368D01*
X-94314Y-404238D01*
X-94289Y-404107D01*
X-94260Y-403978D01*
X-94227Y-403850D01*
X-94191Y-403722D01*
X-94151Y-403596D01*
X-94107Y-403471D01*
X-94059Y-403347D01*
X-94008Y-403225D01*
X-93953Y-403104D01*
X-93895Y-402985D01*
X-93833Y-402867D01*
X-93768Y-402752D01*
X-93699Y-402638D01*
X-93628Y-402527D01*
X-93552Y-402418D01*
X-93474Y-402311D01*
X-93393Y-402206D01*
X-93308Y-402104D01*
X-93221Y-402004D01*
X-93131Y-401907D01*
X-93038Y-401812D01*
X-92942Y-401721D01*
X-92844Y-401632D01*
X-92743Y-401546D01*
X-92639Y-401463D01*
X-92533Y-401383D01*
X-92425Y-401307D01*
X-92315Y-401233D01*
X-92202Y-401163D01*
X-92088Y-401096D01*
X-91971Y-401033D01*
X-91853Y-400973D01*
X-91733Y-400916D01*
X-91611Y-400863D01*
X-91488Y-400814D01*
X-91364Y-400768D01*
X-91238Y-400726D01*
X-91111Y-400688D01*
X-90983Y-400653D01*
X-90854Y-400622D01*
X-90725Y-400595D01*
X-90594Y-400572D01*
X-90463Y-400552D01*
X-90331Y-400537D01*
X-90199Y-400525D01*
X-90067Y-400517D01*
X-89934Y-400513D01*
X-89802Y-400513D01*
X-89669Y-400517D01*
X-89537Y-400525D01*
X-89405Y-400537D01*
X-89273Y-400552D01*
X-89142Y-400572D01*
X-89011Y-400595D01*
X-88882Y-400622D01*
X-88753Y-400653D01*
X-88625Y-400688D01*
X-88498Y-400726D01*
X-88372Y-400768D01*
X-88248Y-400814D01*
X-88125Y-400863D01*
X-88003Y-400916D01*
X-87883Y-400973D01*
X-87765Y-401033D01*
X-87648Y-401096D01*
X-87534Y-401163D01*
X-87421Y-401233D01*
X-87311Y-401307D01*
X-87203Y-401383D01*
X-87097Y-401463D01*
X-86993Y-401546D01*
X-86892Y-401632D01*
X-86794Y-401721D01*
X-86698Y-401812D01*
X-86605Y-401907D01*
X-86515Y-402004D01*
X-86428Y-402104D01*
X-86343Y-402206D01*
X-86262Y-402311D01*
X-86184Y-402418D01*
X-86108Y-402527D01*
X-86037Y-402638D01*
X-85968Y-402752D01*
X-85903Y-402867D01*
X-85841Y-402985D01*
X-85783Y-403104D01*
X-85728Y-403225D01*
X-85677Y-403347D01*
X-85629Y-403471D01*
X-85585Y-403596D01*
X-85545Y-403722D01*
X-85509Y-403850D01*
X-85476Y-403978D01*
X-85447Y-404107D01*
X-85422Y-404238D01*
X-85401Y-404368D01*
X-85383Y-404500D01*
X-85370Y-404632D01*
X-85360Y-404764D01*
X-85354Y-404896D01*
X-85352Y-405029D01*
X-85354Y-405162D01*
X-85360Y-405294D01*
X-85370Y-405426D01*
X-85383Y-405558D01*
X-85401Y-405690D01*
X-85422Y-405820D01*
X-85447Y-405951D01*
X-85476Y-406080D01*
X-85509Y-406208D01*
X-85545Y-406336D01*
X-85585Y-406462D01*
X-85629Y-406587D01*
X-85677Y-406711D01*
X-85728Y-406833D01*
X-85783Y-406954D01*
X-85841Y-407073D01*
X-85903Y-407191D01*
X-85968Y-407306D01*
X-86037Y-407420D01*
X-86108Y-407531D01*
X-86184Y-407640D01*
X-86262Y-407747D01*
X-86343Y-407852D01*
X-86428Y-407954D01*
X-86515Y-408054D01*
X-86605Y-408151D01*
X-86698Y-408246D01*
X-86794Y-408337D01*
X-86892Y-408426D01*
X-86993Y-408512D01*
X-87097Y-408595D01*
X-87203Y-408675D01*
X-87311Y-408751D01*
X-87421Y-408825D01*
X-87534Y-408895D01*
X-87648Y-408962D01*
X-87765Y-409025D01*
X-87883Y-409085D01*
X-88003Y-409142D01*
X-88125Y-409195D01*
X-88248Y-409244D01*
X-88372Y-409290D01*
X-88498Y-409332D01*
X-88625Y-409370D01*
X-88753Y-409405D01*
X-88882Y-409436D01*
X-89011Y-409463D01*
X-89142Y-409486D01*
X-89273Y-409506D01*
X-89405Y-409521D01*
X-89537Y-409533D01*
X-89669Y-409541D01*
X-89802Y-409545D01*
X-89934Y-409545D01*
X-90067Y-409541D01*
X-90199Y-409533D01*
X-90331Y-409521D01*
X-90463Y-409506D01*
X-90594Y-409486D01*
X-90725Y-409463D01*
X-90854Y-409436D01*
X-90983Y-409405D01*
X-91111Y-409370D01*
X-91238Y-409332D01*
X-91364Y-409290D01*
X-91488Y-409244D01*
X-91611Y-409195D01*
X-91733Y-409142D01*
X-91853Y-409085D01*
X-91971Y-409025D01*
X-92088Y-408962D01*
X-92202Y-408895D01*
X-92315Y-408825D01*
X-92425Y-408751D01*
X-92533Y-408675D01*
X-92639Y-408595D01*
X-92743Y-408512D01*
X-92844Y-408426D01*
X-92942Y-408337D01*
X-93038Y-408246D01*
X-93131Y-408151D01*
X-93221Y-408054D01*
X-93308Y-407954D01*
X-93393Y-407852D01*
X-93474Y-407747D01*
X-93552Y-407640D01*
X-93628Y-407531D01*
X-93699Y-407420D01*
X-93768Y-407306D01*
X-93833Y-407191D01*
X-93895Y-407073D01*
X-93953Y-406954D01*
X-94008Y-406833D01*
X-94059Y-406711D01*
X-94107Y-406587D01*
X-94151Y-406462D01*
X-94191Y-406336D01*
X-94227Y-406208D01*
X-94260Y-406080D01*
X-94289Y-405951D01*
X-94314Y-405820D01*
X-94335Y-405690D01*
X-94353Y-405558D01*
X-94366Y-405426D01*
X-94376Y-405294D01*
X-94382Y-405162D01*
X-94384Y-405029D01*
X-93480Y-396901D02*
X-93478Y-396782D01*
X-93472Y-396662D01*
X-93462Y-396543D01*
X-93448Y-396425D01*
X-93431Y-396306D01*
X-93409Y-396189D01*
X-93384Y-396072D01*
X-93354Y-395957D01*
X-93321Y-395842D01*
X-93284Y-395728D01*
X-93244Y-395616D01*
X-93199Y-395505D01*
X-93151Y-395396D01*
X-93100Y-395288D01*
X-93045Y-395182D01*
X-92986Y-395078D01*
X-92924Y-394976D01*
X-92859Y-394876D01*
X-92790Y-394778D01*
X-92718Y-394682D01*
X-92643Y-394589D01*
X-92566Y-394499D01*
X-92485Y-394411D01*
X-92401Y-394326D01*
X-92314Y-394244D01*
X-92225Y-394164D01*
X-92133Y-394088D01*
X-92039Y-394014D01*
X-91942Y-393944D01*
X-91844Y-393877D01*
X-91743Y-393813D01*
X-91639Y-393753D01*
X-91534Y-393696D01*
X-91427Y-393643D01*
X-91319Y-393593D01*
X-91209Y-393547D01*
X-91097Y-393505D01*
X-90984Y-393466D01*
X-90870Y-393431D01*
X-90755Y-393400D01*
X-90638Y-393372D01*
X-90521Y-393349D01*
X-90404Y-393329D01*
X-90285Y-393313D01*
X-90166Y-393301D01*
X-90047Y-393293D01*
X-89928Y-393289D01*
X-89808Y-393289D01*
X-89689Y-393293D01*
X-89570Y-393301D01*
X-89451Y-393313D01*
X-89332Y-393329D01*
X-89215Y-393349D01*
X-89098Y-393372D01*
X-88981Y-393400D01*
X-88866Y-393431D01*
X-88752Y-393466D01*
X-88639Y-393505D01*
X-88527Y-393547D01*
X-88417Y-393593D01*
X-88309Y-393643D01*
X-88202Y-393696D01*
X-88097Y-393753D01*
X-87993Y-393813D01*
X-87892Y-393877D01*
X-87794Y-393944D01*
X-87697Y-394014D01*
X-87603Y-394088D01*
X-87511Y-394164D01*
X-87422Y-394244D01*
X-87335Y-394326D01*
X-87251Y-394411D01*
X-87170Y-394499D01*
X-87093Y-394589D01*
X-87018Y-394682D01*
X-86946Y-394778D01*
X-86877Y-394876D01*
X-86812Y-394976D01*
X-86750Y-395078D01*
X-86691Y-395182D01*
X-86636Y-395288D01*
X-86585Y-395396D01*
X-86537Y-395505D01*
X-86492Y-395616D01*
X-86452Y-395728D01*
X-86415Y-395842D01*
X-86382Y-395957D01*
X-86352Y-396072D01*
X-86327Y-396189D01*
X-86305Y-396306D01*
X-86288Y-396425D01*
X-86274Y-396543D01*
X-86264Y-396662D01*
X-86258Y-396782D01*
X-86256Y-396901D01*
X-86258Y-397020D01*
X-86264Y-397140D01*
X-86274Y-397259D01*
X-86288Y-397377D01*
X-86305Y-397496D01*
X-86327Y-397613D01*
X-86352Y-397730D01*
X-86382Y-397845D01*
X-86415Y-397960D01*
X-86452Y-398074D01*
X-86492Y-398186D01*
X-86537Y-398297D01*
X-86585Y-398406D01*
X-86636Y-398514D01*
X-86691Y-398620D01*
X-86750Y-398724D01*
X-86812Y-398826D01*
X-86877Y-398926D01*
X-86946Y-399024D01*
X-87018Y-399120D01*
X-87093Y-399213D01*
X-87170Y-399303D01*
X-87251Y-399391D01*
X-87335Y-399476D01*
X-87422Y-399558D01*
X-87511Y-399638D01*
X-87603Y-399714D01*
X-87697Y-399788D01*
X-87794Y-399858D01*
X-87892Y-399925D01*
X-87993Y-399989D01*
X-88097Y-400049D01*
X-88202Y-400106D01*
X-88309Y-400159D01*
X-88417Y-400209D01*
X-88527Y-400255D01*
X-88639Y-400297D01*
X-88752Y-400336D01*
X-88866Y-400371D01*
X-88981Y-400402D01*
X-89098Y-400430D01*
X-89215Y-400453D01*
X-89332Y-400473D01*
X-89451Y-400489D01*
X-89570Y-400501D01*
X-89689Y-400509D01*
X-89808Y-400513D01*
X-89928Y-400513D01*
X-90047Y-400509D01*
X-90166Y-400501D01*
X-90285Y-400489D01*
X-90404Y-400473D01*
X-90521Y-400453D01*
X-90638Y-400430D01*
X-90755Y-400402D01*
X-90870Y-400371D01*
X-90984Y-400336D01*
X-91097Y-400297D01*
X-91209Y-400255D01*
X-91319Y-400209D01*
X-91427Y-400159D01*
X-91534Y-400106D01*
X-91639Y-400049D01*
X-91743Y-399989D01*
X-91844Y-399925D01*
X-91942Y-399858D01*
X-92039Y-399788D01*
X-92133Y-399714D01*
X-92225Y-399638D01*
X-92314Y-399558D01*
X-92401Y-399476D01*
X-92485Y-399391D01*
X-92566Y-399303D01*
X-92643Y-399213D01*
X-92718Y-399120D01*
X-92790Y-399024D01*
X-92859Y-398926D01*
X-92924Y-398826D01*
X-92986Y-398724D01*
X-93045Y-398620D01*
X-93100Y-398514D01*
X-93151Y-398406D01*
X-93199Y-398297D01*
X-93244Y-398186D01*
X-93284Y-398074D01*
X-93321Y-397960D01*
X-93354Y-397845D01*
X-93384Y-397730D01*
X-93409Y-397613D01*
X-93431Y-397496D01*
X-93448Y-397377D01*
X-93462Y-397259D01*
X-93472Y-397140D01*
X-93478Y-397020D01*
X-93480Y-396901D01*
X-79378Y-408642D02*
X-79378Y-409545D01*
X-79378Y-408642D02*
X-78475Y-408642D01*
X-78475Y-409545D01*
X-79378Y-409545D01*
X-72500Y-396901D02*
X-67985Y-393289D01*
X-67985Y-409545D01*
X-72500Y-409545D02*
X-63469Y-409545D01*
X-56869Y-400514D02*
X-51450Y-400514D01*
X-51332Y-400516D01*
X-51214Y-400522D01*
X-51096Y-400531D01*
X-50979Y-400545D01*
X-50862Y-400562D01*
X-50745Y-400583D01*
X-50630Y-400608D01*
X-50515Y-400637D01*
X-50401Y-400670D01*
X-50289Y-400706D01*
X-50178Y-400746D01*
X-50068Y-400789D01*
X-49959Y-400836D01*
X-49852Y-400886D01*
X-49747Y-400941D01*
X-49644Y-400998D01*
X-49543Y-401059D01*
X-49443Y-401123D01*
X-49346Y-401190D01*
X-49251Y-401260D01*
X-49159Y-401334D01*
X-49068Y-401410D01*
X-48981Y-401490D01*
X-48896Y-401572D01*
X-48814Y-401657D01*
X-48734Y-401744D01*
X-48658Y-401835D01*
X-48584Y-401927D01*
X-48514Y-402022D01*
X-48447Y-402119D01*
X-48383Y-402219D01*
X-48322Y-402320D01*
X-48265Y-402423D01*
X-48210Y-402528D01*
X-48160Y-402635D01*
X-48113Y-402744D01*
X-48070Y-402854D01*
X-48030Y-402965D01*
X-47994Y-403077D01*
X-47961Y-403191D01*
X-47932Y-403306D01*
X-47907Y-403421D01*
X-47886Y-403538D01*
X-47869Y-403655D01*
X-47855Y-403772D01*
X-47846Y-403890D01*
X-47840Y-404008D01*
X-47838Y-404126D01*
X-47838Y-405029D01*
X-47837Y-405029D02*
X-47839Y-405162D01*
X-47845Y-405294D01*
X-47855Y-405426D01*
X-47868Y-405558D01*
X-47886Y-405690D01*
X-47907Y-405820D01*
X-47932Y-405951D01*
X-47961Y-406080D01*
X-47994Y-406208D01*
X-48030Y-406336D01*
X-48070Y-406462D01*
X-48114Y-406587D01*
X-48162Y-406711D01*
X-48213Y-406833D01*
X-48268Y-406954D01*
X-48326Y-407073D01*
X-48388Y-407191D01*
X-48453Y-407306D01*
X-48522Y-407420D01*
X-48593Y-407531D01*
X-48669Y-407640D01*
X-48747Y-407747D01*
X-48828Y-407852D01*
X-48913Y-407954D01*
X-49000Y-408054D01*
X-49090Y-408151D01*
X-49183Y-408246D01*
X-49279Y-408337D01*
X-49377Y-408426D01*
X-49478Y-408512D01*
X-49582Y-408595D01*
X-49688Y-408675D01*
X-49796Y-408751D01*
X-49906Y-408825D01*
X-50019Y-408895D01*
X-50133Y-408962D01*
X-50250Y-409025D01*
X-50368Y-409085D01*
X-50488Y-409142D01*
X-50610Y-409195D01*
X-50733Y-409244D01*
X-50857Y-409290D01*
X-50983Y-409332D01*
X-51110Y-409370D01*
X-51238Y-409405D01*
X-51367Y-409436D01*
X-51496Y-409463D01*
X-51627Y-409486D01*
X-51758Y-409506D01*
X-51890Y-409521D01*
X-52022Y-409533D01*
X-52154Y-409541D01*
X-52287Y-409545D01*
X-52419Y-409545D01*
X-52552Y-409541D01*
X-52684Y-409533D01*
X-52816Y-409521D01*
X-52948Y-409506D01*
X-53079Y-409486D01*
X-53210Y-409463D01*
X-53339Y-409436D01*
X-53468Y-409405D01*
X-53596Y-409370D01*
X-53723Y-409332D01*
X-53849Y-409290D01*
X-53973Y-409244D01*
X-54096Y-409195D01*
X-54218Y-409142D01*
X-54338Y-409085D01*
X-54456Y-409025D01*
X-54573Y-408962D01*
X-54687Y-408895D01*
X-54800Y-408825D01*
X-54910Y-408751D01*
X-55018Y-408675D01*
X-55124Y-408595D01*
X-55228Y-408512D01*
X-55329Y-408426D01*
X-55427Y-408337D01*
X-55523Y-408246D01*
X-55616Y-408151D01*
X-55706Y-408054D01*
X-55793Y-407954D01*
X-55878Y-407852D01*
X-55959Y-407747D01*
X-56037Y-407640D01*
X-56113Y-407531D01*
X-56184Y-407420D01*
X-56253Y-407306D01*
X-56318Y-407191D01*
X-56380Y-407073D01*
X-56438Y-406954D01*
X-56493Y-406833D01*
X-56544Y-406711D01*
X-56592Y-406587D01*
X-56636Y-406462D01*
X-56676Y-406336D01*
X-56712Y-406208D01*
X-56745Y-406080D01*
X-56774Y-405951D01*
X-56799Y-405820D01*
X-56820Y-405690D01*
X-56838Y-405558D01*
X-56851Y-405426D01*
X-56861Y-405294D01*
X-56867Y-405162D01*
X-56869Y-405029D01*
X-56869Y-400514D01*
X-56867Y-400337D01*
X-56860Y-400159D01*
X-56849Y-399982D01*
X-56834Y-399806D01*
X-56815Y-399630D01*
X-56791Y-399454D01*
X-56763Y-399279D01*
X-56730Y-399104D01*
X-56693Y-398931D01*
X-56652Y-398758D01*
X-56607Y-398587D01*
X-56558Y-398417D01*
X-56504Y-398248D01*
X-56447Y-398080D01*
X-56385Y-397914D01*
X-56319Y-397749D01*
X-56249Y-397586D01*
X-56175Y-397425D01*
X-56098Y-397266D01*
X-56016Y-397108D01*
X-55930Y-396953D01*
X-55841Y-396800D01*
X-55748Y-396649D01*
X-55651Y-396500D01*
X-55551Y-396354D01*
X-55447Y-396210D01*
X-55340Y-396069D01*
X-55229Y-395931D01*
X-55115Y-395795D01*
X-54997Y-395662D01*
X-54877Y-395532D01*
X-54753Y-395405D01*
X-54626Y-395281D01*
X-54496Y-395161D01*
X-54363Y-395043D01*
X-54228Y-394929D01*
X-54089Y-394818D01*
X-53948Y-394711D01*
X-53804Y-394607D01*
X-53658Y-394507D01*
X-53509Y-394410D01*
X-53358Y-394317D01*
X-53205Y-394228D01*
X-53050Y-394142D01*
X-52892Y-394060D01*
X-52733Y-393983D01*
X-52572Y-393909D01*
X-52409Y-393839D01*
X-52244Y-393773D01*
X-52078Y-393711D01*
X-51910Y-393654D01*
X-51741Y-393600D01*
X-51571Y-393551D01*
X-51400Y-393506D01*
X-51227Y-393465D01*
X-51054Y-393428D01*
X-50879Y-393395D01*
X-50704Y-393367D01*
X-50528Y-393343D01*
X-50352Y-393324D01*
X-50176Y-393309D01*
X-49999Y-393298D01*
X-49821Y-393291D01*
X-49644Y-393289D01*
D10*
X311912Y-371348D02*
X381196Y-371348D01*
X381196Y617474D02*
X316230Y617474D01*
X361696Y616824D02*
X361696Y-370698D01*
X358504Y-345348D01*
X364888Y-345348D01*
X361696Y-370698D01*
X360396Y-345348D01*
X362996Y-345348D02*
X361696Y-370698D01*
X359096Y-345348D01*
X364296Y-345348D02*
X361696Y-370698D01*
X358504Y591474D02*
X361696Y616824D01*
X358504Y591474D02*
X364888Y591474D01*
X361696Y616824D01*
X360396Y591474D01*
X362996Y591474D02*
X361696Y616824D01*
X359096Y591474D01*
X364296Y591474D02*
X361696Y616824D01*
D11*
X347964Y100946D02*
X347964Y95527D01*
X347962Y95409D01*
X347956Y95291D01*
X347947Y95173D01*
X347933Y95056D01*
X347916Y94939D01*
X347895Y94822D01*
X347870Y94707D01*
X347841Y94592D01*
X347808Y94478D01*
X347772Y94366D01*
X347732Y94255D01*
X347689Y94145D01*
X347642Y94036D01*
X347592Y93929D01*
X347537Y93824D01*
X347480Y93721D01*
X347419Y93620D01*
X347355Y93520D01*
X347288Y93423D01*
X347218Y93328D01*
X347144Y93236D01*
X347068Y93145D01*
X346988Y93058D01*
X346906Y92973D01*
X346821Y92891D01*
X346734Y92811D01*
X346643Y92735D01*
X346551Y92661D01*
X346456Y92591D01*
X346359Y92524D01*
X346259Y92460D01*
X346158Y92399D01*
X346055Y92342D01*
X345950Y92287D01*
X345843Y92237D01*
X345734Y92190D01*
X345624Y92147D01*
X345513Y92107D01*
X345401Y92071D01*
X345287Y92038D01*
X345172Y92009D01*
X345057Y91984D01*
X344940Y91963D01*
X344823Y91946D01*
X344706Y91932D01*
X344588Y91923D01*
X344470Y91917D01*
X344352Y91915D01*
X343449Y91915D01*
X343316Y91917D01*
X343184Y91923D01*
X343052Y91933D01*
X342920Y91946D01*
X342788Y91964D01*
X342658Y91985D01*
X342527Y92010D01*
X342398Y92039D01*
X342270Y92072D01*
X342142Y92108D01*
X342016Y92148D01*
X341891Y92192D01*
X341767Y92240D01*
X341645Y92291D01*
X341524Y92346D01*
X341405Y92404D01*
X341287Y92466D01*
X341172Y92531D01*
X341058Y92600D01*
X340947Y92671D01*
X340838Y92747D01*
X340731Y92825D01*
X340626Y92906D01*
X340524Y92991D01*
X340424Y93078D01*
X340327Y93168D01*
X340232Y93261D01*
X340141Y93357D01*
X340052Y93455D01*
X339966Y93556D01*
X339883Y93660D01*
X339803Y93766D01*
X339727Y93874D01*
X339653Y93984D01*
X339583Y94097D01*
X339516Y94211D01*
X339453Y94328D01*
X339393Y94446D01*
X339336Y94566D01*
X339283Y94688D01*
X339234Y94811D01*
X339188Y94935D01*
X339146Y95061D01*
X339108Y95188D01*
X339073Y95316D01*
X339042Y95445D01*
X339015Y95574D01*
X338992Y95705D01*
X338972Y95836D01*
X338957Y95968D01*
X338945Y96100D01*
X338937Y96232D01*
X338933Y96365D01*
X338933Y96497D01*
X338937Y96630D01*
X338945Y96762D01*
X338957Y96894D01*
X338972Y97026D01*
X338992Y97157D01*
X339015Y97288D01*
X339042Y97417D01*
X339073Y97546D01*
X339108Y97674D01*
X339146Y97801D01*
X339188Y97927D01*
X339234Y98051D01*
X339283Y98174D01*
X339336Y98296D01*
X339393Y98416D01*
X339453Y98534D01*
X339516Y98651D01*
X339583Y98765D01*
X339653Y98878D01*
X339727Y98988D01*
X339803Y99096D01*
X339883Y99202D01*
X339966Y99306D01*
X340052Y99407D01*
X340141Y99505D01*
X340232Y99601D01*
X340327Y99694D01*
X340424Y99784D01*
X340524Y99871D01*
X340626Y99956D01*
X340731Y100037D01*
X340838Y100115D01*
X340947Y100191D01*
X341058Y100262D01*
X341172Y100331D01*
X341287Y100396D01*
X341405Y100458D01*
X341524Y100516D01*
X341645Y100571D01*
X341767Y100622D01*
X341891Y100670D01*
X342016Y100714D01*
X342142Y100754D01*
X342270Y100790D01*
X342398Y100823D01*
X342527Y100852D01*
X342658Y100877D01*
X342788Y100898D01*
X342920Y100916D01*
X343052Y100929D01*
X343184Y100939D01*
X343316Y100945D01*
X343449Y100947D01*
X343449Y100946D02*
X347964Y100946D01*
X348139Y100944D01*
X348313Y100938D01*
X348487Y100927D01*
X348661Y100912D01*
X348835Y100893D01*
X349008Y100870D01*
X349180Y100843D01*
X349352Y100811D01*
X349523Y100776D01*
X349693Y100736D01*
X349862Y100692D01*
X350030Y100644D01*
X350197Y100592D01*
X350362Y100536D01*
X350526Y100476D01*
X350689Y100413D01*
X350849Y100345D01*
X351009Y100273D01*
X351166Y100198D01*
X351322Y100118D01*
X351475Y100035D01*
X351627Y99949D01*
X351776Y99858D01*
X351923Y99764D01*
X352068Y99667D01*
X352211Y99566D01*
X352351Y99462D01*
X352488Y99354D01*
X352623Y99243D01*
X352755Y99129D01*
X352884Y99012D01*
X353011Y98891D01*
X353134Y98768D01*
X353255Y98641D01*
X353372Y98512D01*
X353486Y98380D01*
X353597Y98245D01*
X353705Y98108D01*
X353809Y97968D01*
X353910Y97825D01*
X354007Y97680D01*
X354101Y97533D01*
X354192Y97384D01*
X354278Y97232D01*
X354361Y97079D01*
X354441Y96923D01*
X354516Y96766D01*
X354588Y96606D01*
X354656Y96446D01*
X354719Y96283D01*
X354779Y96119D01*
X354835Y95954D01*
X354887Y95787D01*
X354935Y95619D01*
X354979Y95450D01*
X355019Y95280D01*
X355054Y95109D01*
X355086Y94937D01*
X355113Y94765D01*
X355136Y94592D01*
X355155Y94418D01*
X355170Y94244D01*
X355181Y94070D01*
X355187Y93896D01*
X355189Y93721D01*
X350673Y107546D02*
X350540Y107548D01*
X350408Y107554D01*
X350276Y107564D01*
X350144Y107577D01*
X350012Y107595D01*
X349882Y107616D01*
X349751Y107641D01*
X349622Y107670D01*
X349494Y107703D01*
X349366Y107739D01*
X349240Y107779D01*
X349115Y107823D01*
X348991Y107871D01*
X348869Y107922D01*
X348748Y107977D01*
X348629Y108035D01*
X348511Y108097D01*
X348396Y108162D01*
X348282Y108231D01*
X348171Y108302D01*
X348062Y108378D01*
X347955Y108456D01*
X347850Y108537D01*
X347748Y108622D01*
X347648Y108709D01*
X347551Y108799D01*
X347456Y108892D01*
X347365Y108988D01*
X347276Y109086D01*
X347190Y109187D01*
X347107Y109291D01*
X347027Y109397D01*
X346951Y109505D01*
X346877Y109615D01*
X346807Y109728D01*
X346740Y109842D01*
X346677Y109959D01*
X346617Y110077D01*
X346560Y110197D01*
X346507Y110319D01*
X346458Y110442D01*
X346412Y110566D01*
X346370Y110692D01*
X346332Y110819D01*
X346297Y110947D01*
X346266Y111076D01*
X346239Y111205D01*
X346216Y111336D01*
X346196Y111467D01*
X346181Y111599D01*
X346169Y111731D01*
X346161Y111863D01*
X346157Y111996D01*
X346157Y112128D01*
X346161Y112261D01*
X346169Y112393D01*
X346181Y112525D01*
X346196Y112657D01*
X346216Y112788D01*
X346239Y112919D01*
X346266Y113048D01*
X346297Y113177D01*
X346332Y113305D01*
X346370Y113432D01*
X346412Y113558D01*
X346458Y113682D01*
X346507Y113805D01*
X346560Y113927D01*
X346617Y114047D01*
X346677Y114165D01*
X346740Y114282D01*
X346807Y114396D01*
X346877Y114509D01*
X346951Y114619D01*
X347027Y114727D01*
X347107Y114833D01*
X347190Y114937D01*
X347276Y115038D01*
X347365Y115136D01*
X347456Y115232D01*
X347551Y115325D01*
X347648Y115415D01*
X347748Y115502D01*
X347850Y115587D01*
X347955Y115668D01*
X348062Y115746D01*
X348171Y115822D01*
X348282Y115893D01*
X348396Y115962D01*
X348511Y116027D01*
X348629Y116089D01*
X348748Y116147D01*
X348869Y116202D01*
X348991Y116253D01*
X349115Y116301D01*
X349240Y116345D01*
X349366Y116385D01*
X349494Y116421D01*
X349622Y116454D01*
X349751Y116483D01*
X349882Y116508D01*
X350012Y116529D01*
X350144Y116547D01*
X350276Y116560D01*
X350408Y116570D01*
X350540Y116576D01*
X350673Y116578D01*
X350806Y116576D01*
X350938Y116570D01*
X351070Y116560D01*
X351202Y116547D01*
X351334Y116529D01*
X351464Y116508D01*
X351595Y116483D01*
X351724Y116454D01*
X351852Y116421D01*
X351980Y116385D01*
X352106Y116345D01*
X352231Y116301D01*
X352355Y116253D01*
X352477Y116202D01*
X352598Y116147D01*
X352717Y116089D01*
X352835Y116027D01*
X352950Y115962D01*
X353064Y115893D01*
X353175Y115822D01*
X353284Y115746D01*
X353391Y115668D01*
X353496Y115587D01*
X353598Y115502D01*
X353698Y115415D01*
X353795Y115325D01*
X353890Y115232D01*
X353981Y115136D01*
X354070Y115038D01*
X354156Y114937D01*
X354239Y114833D01*
X354319Y114727D01*
X354395Y114619D01*
X354469Y114509D01*
X354539Y114396D01*
X354606Y114282D01*
X354669Y114165D01*
X354729Y114047D01*
X354786Y113927D01*
X354839Y113805D01*
X354888Y113682D01*
X354934Y113558D01*
X354976Y113432D01*
X355014Y113305D01*
X355049Y113177D01*
X355080Y113048D01*
X355107Y112919D01*
X355130Y112788D01*
X355150Y112657D01*
X355165Y112525D01*
X355177Y112393D01*
X355185Y112261D01*
X355189Y112128D01*
X355189Y111996D01*
X355185Y111863D01*
X355177Y111731D01*
X355165Y111599D01*
X355150Y111467D01*
X355130Y111336D01*
X355107Y111205D01*
X355080Y111076D01*
X355049Y110947D01*
X355014Y110819D01*
X354976Y110692D01*
X354934Y110566D01*
X354888Y110442D01*
X354839Y110319D01*
X354786Y110197D01*
X354729Y110077D01*
X354669Y109959D01*
X354606Y109842D01*
X354539Y109728D01*
X354469Y109615D01*
X354395Y109505D01*
X354319Y109397D01*
X354239Y109291D01*
X354156Y109187D01*
X354070Y109086D01*
X353981Y108988D01*
X353890Y108892D01*
X353795Y108799D01*
X353698Y108709D01*
X353598Y108622D01*
X353496Y108537D01*
X353391Y108456D01*
X353284Y108378D01*
X353175Y108302D01*
X353064Y108231D01*
X352950Y108162D01*
X352835Y108097D01*
X352717Y108035D01*
X352598Y107977D01*
X352477Y107922D01*
X352355Y107871D01*
X352231Y107823D01*
X352106Y107779D01*
X351980Y107739D01*
X351852Y107703D01*
X351724Y107670D01*
X351595Y107641D01*
X351464Y107616D01*
X351334Y107595D01*
X351202Y107577D01*
X351070Y107564D01*
X350938Y107554D01*
X350806Y107548D01*
X350673Y107546D01*
X342545Y108450D02*
X342426Y108452D01*
X342306Y108458D01*
X342187Y108468D01*
X342069Y108482D01*
X341950Y108499D01*
X341833Y108521D01*
X341716Y108546D01*
X341601Y108576D01*
X341486Y108609D01*
X341372Y108646D01*
X341260Y108686D01*
X341149Y108731D01*
X341040Y108779D01*
X340932Y108830D01*
X340826Y108885D01*
X340722Y108944D01*
X340620Y109006D01*
X340520Y109071D01*
X340422Y109140D01*
X340326Y109212D01*
X340233Y109287D01*
X340143Y109364D01*
X340055Y109445D01*
X339970Y109529D01*
X339888Y109616D01*
X339808Y109705D01*
X339732Y109797D01*
X339658Y109891D01*
X339588Y109988D01*
X339521Y110086D01*
X339457Y110187D01*
X339397Y110291D01*
X339340Y110396D01*
X339287Y110503D01*
X339237Y110611D01*
X339191Y110721D01*
X339149Y110833D01*
X339110Y110946D01*
X339075Y111060D01*
X339044Y111175D01*
X339016Y111292D01*
X338993Y111409D01*
X338973Y111526D01*
X338957Y111645D01*
X338945Y111764D01*
X338937Y111883D01*
X338933Y112002D01*
X338933Y112122D01*
X338937Y112241D01*
X338945Y112360D01*
X338957Y112479D01*
X338973Y112598D01*
X338993Y112715D01*
X339016Y112832D01*
X339044Y112949D01*
X339075Y113064D01*
X339110Y113178D01*
X339149Y113291D01*
X339191Y113403D01*
X339237Y113513D01*
X339287Y113621D01*
X339340Y113728D01*
X339397Y113833D01*
X339457Y113937D01*
X339521Y114038D01*
X339588Y114136D01*
X339658Y114233D01*
X339732Y114327D01*
X339808Y114419D01*
X339888Y114508D01*
X339970Y114595D01*
X340055Y114679D01*
X340143Y114760D01*
X340233Y114837D01*
X340326Y114912D01*
X340422Y114984D01*
X340520Y115053D01*
X340620Y115118D01*
X340722Y115180D01*
X340826Y115239D01*
X340932Y115294D01*
X341040Y115345D01*
X341149Y115393D01*
X341260Y115438D01*
X341372Y115478D01*
X341486Y115515D01*
X341601Y115548D01*
X341716Y115578D01*
X341833Y115603D01*
X341950Y115625D01*
X342069Y115642D01*
X342187Y115656D01*
X342306Y115666D01*
X342426Y115672D01*
X342545Y115674D01*
X342664Y115672D01*
X342784Y115666D01*
X342903Y115656D01*
X343021Y115642D01*
X343140Y115625D01*
X343257Y115603D01*
X343374Y115578D01*
X343489Y115548D01*
X343604Y115515D01*
X343718Y115478D01*
X343830Y115438D01*
X343941Y115393D01*
X344050Y115345D01*
X344158Y115294D01*
X344264Y115239D01*
X344368Y115180D01*
X344470Y115118D01*
X344570Y115053D01*
X344668Y114984D01*
X344764Y114912D01*
X344857Y114837D01*
X344947Y114760D01*
X345035Y114679D01*
X345120Y114595D01*
X345202Y114508D01*
X345282Y114419D01*
X345358Y114327D01*
X345432Y114233D01*
X345502Y114136D01*
X345569Y114038D01*
X345633Y113937D01*
X345693Y113833D01*
X345750Y113728D01*
X345803Y113621D01*
X345853Y113513D01*
X345899Y113403D01*
X345941Y113291D01*
X345980Y113178D01*
X346015Y113064D01*
X346046Y112949D01*
X346074Y112832D01*
X346097Y112715D01*
X346117Y112598D01*
X346133Y112479D01*
X346145Y112360D01*
X346153Y112241D01*
X346157Y112122D01*
X346157Y112002D01*
X346153Y111883D01*
X346145Y111764D01*
X346133Y111645D01*
X346117Y111526D01*
X346097Y111409D01*
X346074Y111292D01*
X346046Y111175D01*
X346015Y111060D01*
X345980Y110946D01*
X345941Y110833D01*
X345899Y110721D01*
X345853Y110611D01*
X345803Y110503D01*
X345750Y110396D01*
X345693Y110291D01*
X345633Y110187D01*
X345569Y110086D01*
X345502Y109988D01*
X345432Y109891D01*
X345358Y109797D01*
X345282Y109705D01*
X345202Y109616D01*
X345120Y109529D01*
X345035Y109445D01*
X344947Y109364D01*
X344857Y109287D01*
X344764Y109212D01*
X344668Y109140D01*
X344570Y109071D01*
X344470Y109006D01*
X344368Y108944D01*
X344264Y108885D01*
X344158Y108830D01*
X344050Y108779D01*
X343941Y108731D01*
X343830Y108686D01*
X343718Y108646D01*
X343604Y108609D01*
X343489Y108576D01*
X343374Y108546D01*
X343257Y108521D01*
X343140Y108499D01*
X343021Y108482D01*
X342903Y108468D01*
X342784Y108458D01*
X342664Y108452D01*
X342545Y108450D01*
X354286Y122552D02*
X355189Y122552D01*
X354286Y122552D02*
X354286Y123455D01*
X355189Y123455D01*
X355189Y122552D01*
X350673Y129429D02*
X350540Y129431D01*
X350408Y129437D01*
X350276Y129447D01*
X350144Y129460D01*
X350012Y129478D01*
X349882Y129499D01*
X349751Y129524D01*
X349622Y129553D01*
X349494Y129586D01*
X349366Y129622D01*
X349240Y129662D01*
X349115Y129706D01*
X348991Y129754D01*
X348869Y129805D01*
X348748Y129860D01*
X348629Y129918D01*
X348511Y129980D01*
X348396Y130045D01*
X348282Y130114D01*
X348171Y130185D01*
X348062Y130261D01*
X347955Y130339D01*
X347850Y130420D01*
X347748Y130505D01*
X347648Y130592D01*
X347551Y130682D01*
X347456Y130775D01*
X347365Y130871D01*
X347276Y130969D01*
X347190Y131070D01*
X347107Y131174D01*
X347027Y131280D01*
X346951Y131388D01*
X346877Y131498D01*
X346807Y131611D01*
X346740Y131725D01*
X346677Y131842D01*
X346617Y131960D01*
X346560Y132080D01*
X346507Y132202D01*
X346458Y132325D01*
X346412Y132449D01*
X346370Y132575D01*
X346332Y132702D01*
X346297Y132830D01*
X346266Y132959D01*
X346239Y133088D01*
X346216Y133219D01*
X346196Y133350D01*
X346181Y133482D01*
X346169Y133614D01*
X346161Y133746D01*
X346157Y133879D01*
X346157Y134011D01*
X346161Y134144D01*
X346169Y134276D01*
X346181Y134408D01*
X346196Y134540D01*
X346216Y134671D01*
X346239Y134802D01*
X346266Y134931D01*
X346297Y135060D01*
X346332Y135188D01*
X346370Y135315D01*
X346412Y135441D01*
X346458Y135565D01*
X346507Y135688D01*
X346560Y135810D01*
X346617Y135930D01*
X346677Y136048D01*
X346740Y136165D01*
X346807Y136279D01*
X346877Y136392D01*
X346951Y136502D01*
X347027Y136610D01*
X347107Y136716D01*
X347190Y136820D01*
X347276Y136921D01*
X347365Y137019D01*
X347456Y137115D01*
X347551Y137208D01*
X347648Y137298D01*
X347748Y137385D01*
X347850Y137470D01*
X347955Y137551D01*
X348062Y137629D01*
X348171Y137705D01*
X348282Y137776D01*
X348396Y137845D01*
X348511Y137910D01*
X348629Y137972D01*
X348748Y138030D01*
X348869Y138085D01*
X348991Y138136D01*
X349115Y138184D01*
X349240Y138228D01*
X349366Y138268D01*
X349494Y138304D01*
X349622Y138337D01*
X349751Y138366D01*
X349882Y138391D01*
X350012Y138412D01*
X350144Y138430D01*
X350276Y138443D01*
X350408Y138453D01*
X350540Y138459D01*
X350673Y138461D01*
X350806Y138459D01*
X350938Y138453D01*
X351070Y138443D01*
X351202Y138430D01*
X351334Y138412D01*
X351464Y138391D01*
X351595Y138366D01*
X351724Y138337D01*
X351852Y138304D01*
X351980Y138268D01*
X352106Y138228D01*
X352231Y138184D01*
X352355Y138136D01*
X352477Y138085D01*
X352598Y138030D01*
X352717Y137972D01*
X352835Y137910D01*
X352950Y137845D01*
X353064Y137776D01*
X353175Y137705D01*
X353284Y137629D01*
X353391Y137551D01*
X353496Y137470D01*
X353598Y137385D01*
X353698Y137298D01*
X353795Y137208D01*
X353890Y137115D01*
X353981Y137019D01*
X354070Y136921D01*
X354156Y136820D01*
X354239Y136716D01*
X354319Y136610D01*
X354395Y136502D01*
X354469Y136392D01*
X354539Y136279D01*
X354606Y136165D01*
X354669Y136048D01*
X354729Y135930D01*
X354786Y135810D01*
X354839Y135688D01*
X354888Y135565D01*
X354934Y135441D01*
X354976Y135315D01*
X355014Y135188D01*
X355049Y135060D01*
X355080Y134931D01*
X355107Y134802D01*
X355130Y134671D01*
X355150Y134540D01*
X355165Y134408D01*
X355177Y134276D01*
X355185Y134144D01*
X355189Y134011D01*
X355189Y133879D01*
X355185Y133746D01*
X355177Y133614D01*
X355165Y133482D01*
X355150Y133350D01*
X355130Y133219D01*
X355107Y133088D01*
X355080Y132959D01*
X355049Y132830D01*
X355014Y132702D01*
X354976Y132575D01*
X354934Y132449D01*
X354888Y132325D01*
X354839Y132202D01*
X354786Y132080D01*
X354729Y131960D01*
X354669Y131842D01*
X354606Y131725D01*
X354539Y131611D01*
X354469Y131498D01*
X354395Y131388D01*
X354319Y131280D01*
X354239Y131174D01*
X354156Y131070D01*
X354070Y130969D01*
X353981Y130871D01*
X353890Y130775D01*
X353795Y130682D01*
X353698Y130592D01*
X353598Y130505D01*
X353496Y130420D01*
X353391Y130339D01*
X353284Y130261D01*
X353175Y130185D01*
X353064Y130114D01*
X352950Y130045D01*
X352835Y129980D01*
X352717Y129918D01*
X352598Y129860D01*
X352477Y129805D01*
X352355Y129754D01*
X352231Y129706D01*
X352106Y129662D01*
X351980Y129622D01*
X351852Y129586D01*
X351724Y129553D01*
X351595Y129524D01*
X351464Y129499D01*
X351334Y129478D01*
X351202Y129460D01*
X351070Y129447D01*
X350938Y129437D01*
X350806Y129431D01*
X350673Y129429D01*
X342545Y130333D02*
X342426Y130335D01*
X342306Y130341D01*
X342187Y130351D01*
X342069Y130365D01*
X341950Y130382D01*
X341833Y130404D01*
X341716Y130429D01*
X341601Y130459D01*
X341486Y130492D01*
X341372Y130529D01*
X341260Y130569D01*
X341149Y130614D01*
X341040Y130662D01*
X340932Y130713D01*
X340826Y130768D01*
X340722Y130827D01*
X340620Y130889D01*
X340520Y130954D01*
X340422Y131023D01*
X340326Y131095D01*
X340233Y131170D01*
X340143Y131247D01*
X340055Y131328D01*
X339970Y131412D01*
X339888Y131499D01*
X339808Y131588D01*
X339732Y131680D01*
X339658Y131774D01*
X339588Y131871D01*
X339521Y131969D01*
X339457Y132070D01*
X339397Y132174D01*
X339340Y132279D01*
X339287Y132386D01*
X339237Y132494D01*
X339191Y132604D01*
X339149Y132716D01*
X339110Y132829D01*
X339075Y132943D01*
X339044Y133058D01*
X339016Y133175D01*
X338993Y133292D01*
X338973Y133409D01*
X338957Y133528D01*
X338945Y133647D01*
X338937Y133766D01*
X338933Y133885D01*
X338933Y134005D01*
X338937Y134124D01*
X338945Y134243D01*
X338957Y134362D01*
X338973Y134481D01*
X338993Y134598D01*
X339016Y134715D01*
X339044Y134832D01*
X339075Y134947D01*
X339110Y135061D01*
X339149Y135174D01*
X339191Y135286D01*
X339237Y135396D01*
X339287Y135504D01*
X339340Y135611D01*
X339397Y135716D01*
X339457Y135820D01*
X339521Y135921D01*
X339588Y136019D01*
X339658Y136116D01*
X339732Y136210D01*
X339808Y136302D01*
X339888Y136391D01*
X339970Y136478D01*
X340055Y136562D01*
X340143Y136643D01*
X340233Y136720D01*
X340326Y136795D01*
X340422Y136867D01*
X340520Y136936D01*
X340620Y137001D01*
X340722Y137063D01*
X340826Y137122D01*
X340932Y137177D01*
X341040Y137228D01*
X341149Y137276D01*
X341260Y137321D01*
X341372Y137361D01*
X341486Y137398D01*
X341601Y137431D01*
X341716Y137461D01*
X341833Y137486D01*
X341950Y137508D01*
X342069Y137525D01*
X342187Y137539D01*
X342306Y137549D01*
X342426Y137555D01*
X342545Y137557D01*
X342664Y137555D01*
X342784Y137549D01*
X342903Y137539D01*
X343021Y137525D01*
X343140Y137508D01*
X343257Y137486D01*
X343374Y137461D01*
X343489Y137431D01*
X343604Y137398D01*
X343718Y137361D01*
X343830Y137321D01*
X343941Y137276D01*
X344050Y137228D01*
X344158Y137177D01*
X344264Y137122D01*
X344368Y137063D01*
X344470Y137001D01*
X344570Y136936D01*
X344668Y136867D01*
X344764Y136795D01*
X344857Y136720D01*
X344947Y136643D01*
X345035Y136562D01*
X345120Y136478D01*
X345202Y136391D01*
X345282Y136302D01*
X345358Y136210D01*
X345432Y136116D01*
X345502Y136019D01*
X345569Y135921D01*
X345633Y135820D01*
X345693Y135716D01*
X345750Y135611D01*
X345803Y135504D01*
X345853Y135396D01*
X345899Y135286D01*
X345941Y135174D01*
X345980Y135061D01*
X346015Y134947D01*
X346046Y134832D01*
X346074Y134715D01*
X346097Y134598D01*
X346117Y134481D01*
X346133Y134362D01*
X346145Y134243D01*
X346153Y134124D01*
X346157Y134005D01*
X346157Y133885D01*
X346153Y133766D01*
X346145Y133647D01*
X346133Y133528D01*
X346117Y133409D01*
X346097Y133292D01*
X346074Y133175D01*
X346046Y133058D01*
X346015Y132943D01*
X345980Y132829D01*
X345941Y132716D01*
X345899Y132604D01*
X345853Y132494D01*
X345803Y132386D01*
X345750Y132279D01*
X345693Y132174D01*
X345633Y132070D01*
X345569Y131969D01*
X345502Y131871D01*
X345432Y131774D01*
X345358Y131680D01*
X345282Y131588D01*
X345202Y131499D01*
X345120Y131412D01*
X345035Y131328D01*
X344947Y131247D01*
X344857Y131170D01*
X344764Y131095D01*
X344668Y131023D01*
X344570Y130954D01*
X344470Y130889D01*
X344368Y130827D01*
X344264Y130768D01*
X344158Y130713D01*
X344050Y130662D01*
X343941Y130614D01*
X343830Y130569D01*
X343718Y130529D01*
X343604Y130492D01*
X343489Y130459D01*
X343374Y130429D01*
X343257Y130404D01*
X343140Y130382D01*
X343021Y130365D01*
X342903Y130351D01*
X342784Y130341D01*
X342664Y130335D01*
X342545Y130333D01*
X350673Y145061D02*
X350540Y145063D01*
X350408Y145069D01*
X350276Y145079D01*
X350144Y145092D01*
X350012Y145110D01*
X349882Y145131D01*
X349751Y145156D01*
X349622Y145185D01*
X349494Y145218D01*
X349366Y145254D01*
X349240Y145294D01*
X349115Y145338D01*
X348991Y145386D01*
X348869Y145437D01*
X348748Y145492D01*
X348629Y145550D01*
X348511Y145612D01*
X348396Y145677D01*
X348282Y145746D01*
X348171Y145817D01*
X348062Y145893D01*
X347955Y145971D01*
X347850Y146052D01*
X347748Y146137D01*
X347648Y146224D01*
X347551Y146314D01*
X347456Y146407D01*
X347365Y146503D01*
X347276Y146601D01*
X347190Y146702D01*
X347107Y146806D01*
X347027Y146912D01*
X346951Y147020D01*
X346877Y147130D01*
X346807Y147243D01*
X346740Y147357D01*
X346677Y147474D01*
X346617Y147592D01*
X346560Y147712D01*
X346507Y147834D01*
X346458Y147957D01*
X346412Y148081D01*
X346370Y148207D01*
X346332Y148334D01*
X346297Y148462D01*
X346266Y148591D01*
X346239Y148720D01*
X346216Y148851D01*
X346196Y148982D01*
X346181Y149114D01*
X346169Y149246D01*
X346161Y149378D01*
X346157Y149511D01*
X346157Y149643D01*
X346161Y149776D01*
X346169Y149908D01*
X346181Y150040D01*
X346196Y150172D01*
X346216Y150303D01*
X346239Y150434D01*
X346266Y150563D01*
X346297Y150692D01*
X346332Y150820D01*
X346370Y150947D01*
X346412Y151073D01*
X346458Y151197D01*
X346507Y151320D01*
X346560Y151442D01*
X346617Y151562D01*
X346677Y151680D01*
X346740Y151797D01*
X346807Y151911D01*
X346877Y152024D01*
X346951Y152134D01*
X347027Y152242D01*
X347107Y152348D01*
X347190Y152452D01*
X347276Y152553D01*
X347365Y152651D01*
X347456Y152747D01*
X347551Y152840D01*
X347648Y152930D01*
X347748Y153017D01*
X347850Y153102D01*
X347955Y153183D01*
X348062Y153261D01*
X348171Y153337D01*
X348282Y153408D01*
X348396Y153477D01*
X348511Y153542D01*
X348629Y153604D01*
X348748Y153662D01*
X348869Y153717D01*
X348991Y153768D01*
X349115Y153816D01*
X349240Y153860D01*
X349366Y153900D01*
X349494Y153936D01*
X349622Y153969D01*
X349751Y153998D01*
X349882Y154023D01*
X350012Y154044D01*
X350144Y154062D01*
X350276Y154075D01*
X350408Y154085D01*
X350540Y154091D01*
X350673Y154093D01*
X350806Y154091D01*
X350938Y154085D01*
X351070Y154075D01*
X351202Y154062D01*
X351334Y154044D01*
X351464Y154023D01*
X351595Y153998D01*
X351724Y153969D01*
X351852Y153936D01*
X351980Y153900D01*
X352106Y153860D01*
X352231Y153816D01*
X352355Y153768D01*
X352477Y153717D01*
X352598Y153662D01*
X352717Y153604D01*
X352835Y153542D01*
X352950Y153477D01*
X353064Y153408D01*
X353175Y153337D01*
X353284Y153261D01*
X353391Y153183D01*
X353496Y153102D01*
X353598Y153017D01*
X353698Y152930D01*
X353795Y152840D01*
X353890Y152747D01*
X353981Y152651D01*
X354070Y152553D01*
X354156Y152452D01*
X354239Y152348D01*
X354319Y152242D01*
X354395Y152134D01*
X354469Y152024D01*
X354539Y151911D01*
X354606Y151797D01*
X354669Y151680D01*
X354729Y151562D01*
X354786Y151442D01*
X354839Y151320D01*
X354888Y151197D01*
X354934Y151073D01*
X354976Y150947D01*
X355014Y150820D01*
X355049Y150692D01*
X355080Y150563D01*
X355107Y150434D01*
X355130Y150303D01*
X355150Y150172D01*
X355165Y150040D01*
X355177Y149908D01*
X355185Y149776D01*
X355189Y149643D01*
X355189Y149511D01*
X355185Y149378D01*
X355177Y149246D01*
X355165Y149114D01*
X355150Y148982D01*
X355130Y148851D01*
X355107Y148720D01*
X355080Y148591D01*
X355049Y148462D01*
X355014Y148334D01*
X354976Y148207D01*
X354934Y148081D01*
X354888Y147957D01*
X354839Y147834D01*
X354786Y147712D01*
X354729Y147592D01*
X354669Y147474D01*
X354606Y147357D01*
X354539Y147243D01*
X354469Y147130D01*
X354395Y147020D01*
X354319Y146912D01*
X354239Y146806D01*
X354156Y146702D01*
X354070Y146601D01*
X353981Y146503D01*
X353890Y146407D01*
X353795Y146314D01*
X353698Y146224D01*
X353598Y146137D01*
X353496Y146052D01*
X353391Y145971D01*
X353284Y145893D01*
X353175Y145817D01*
X353064Y145746D01*
X352950Y145677D01*
X352835Y145612D01*
X352717Y145550D01*
X352598Y145492D01*
X352477Y145437D01*
X352355Y145386D01*
X352231Y145338D01*
X352106Y145294D01*
X351980Y145254D01*
X351852Y145218D01*
X351724Y145185D01*
X351595Y145156D01*
X351464Y145131D01*
X351334Y145110D01*
X351202Y145092D01*
X351070Y145079D01*
X350938Y145069D01*
X350806Y145063D01*
X350673Y145061D01*
X342545Y145965D02*
X342426Y145967D01*
X342306Y145973D01*
X342187Y145983D01*
X342069Y145997D01*
X341950Y146014D01*
X341833Y146036D01*
X341716Y146061D01*
X341601Y146091D01*
X341486Y146124D01*
X341372Y146161D01*
X341260Y146201D01*
X341149Y146246D01*
X341040Y146294D01*
X340932Y146345D01*
X340826Y146400D01*
X340722Y146459D01*
X340620Y146521D01*
X340520Y146586D01*
X340422Y146655D01*
X340326Y146727D01*
X340233Y146802D01*
X340143Y146879D01*
X340055Y146960D01*
X339970Y147044D01*
X339888Y147131D01*
X339808Y147220D01*
X339732Y147312D01*
X339658Y147406D01*
X339588Y147503D01*
X339521Y147601D01*
X339457Y147702D01*
X339397Y147806D01*
X339340Y147911D01*
X339287Y148018D01*
X339237Y148126D01*
X339191Y148236D01*
X339149Y148348D01*
X339110Y148461D01*
X339075Y148575D01*
X339044Y148690D01*
X339016Y148807D01*
X338993Y148924D01*
X338973Y149041D01*
X338957Y149160D01*
X338945Y149279D01*
X338937Y149398D01*
X338933Y149517D01*
X338933Y149637D01*
X338937Y149756D01*
X338945Y149875D01*
X338957Y149994D01*
X338973Y150113D01*
X338993Y150230D01*
X339016Y150347D01*
X339044Y150464D01*
X339075Y150579D01*
X339110Y150693D01*
X339149Y150806D01*
X339191Y150918D01*
X339237Y151028D01*
X339287Y151136D01*
X339340Y151243D01*
X339397Y151348D01*
X339457Y151452D01*
X339521Y151553D01*
X339588Y151651D01*
X339658Y151748D01*
X339732Y151842D01*
X339808Y151934D01*
X339888Y152023D01*
X339970Y152110D01*
X340055Y152194D01*
X340143Y152275D01*
X340233Y152352D01*
X340326Y152427D01*
X340422Y152499D01*
X340520Y152568D01*
X340620Y152633D01*
X340722Y152695D01*
X340826Y152754D01*
X340932Y152809D01*
X341040Y152860D01*
X341149Y152908D01*
X341260Y152953D01*
X341372Y152993D01*
X341486Y153030D01*
X341601Y153063D01*
X341716Y153093D01*
X341833Y153118D01*
X341950Y153140D01*
X342069Y153157D01*
X342187Y153171D01*
X342306Y153181D01*
X342426Y153187D01*
X342545Y153189D01*
X342664Y153187D01*
X342784Y153181D01*
X342903Y153171D01*
X343021Y153157D01*
X343140Y153140D01*
X343257Y153118D01*
X343374Y153093D01*
X343489Y153063D01*
X343604Y153030D01*
X343718Y152993D01*
X343830Y152953D01*
X343941Y152908D01*
X344050Y152860D01*
X344158Y152809D01*
X344264Y152754D01*
X344368Y152695D01*
X344470Y152633D01*
X344570Y152568D01*
X344668Y152499D01*
X344764Y152427D01*
X344857Y152352D01*
X344947Y152275D01*
X345035Y152194D01*
X345120Y152110D01*
X345202Y152023D01*
X345282Y151934D01*
X345358Y151842D01*
X345432Y151748D01*
X345502Y151651D01*
X345569Y151553D01*
X345633Y151452D01*
X345693Y151348D01*
X345750Y151243D01*
X345803Y151136D01*
X345853Y151028D01*
X345899Y150918D01*
X345941Y150806D01*
X345980Y150693D01*
X346015Y150579D01*
X346046Y150464D01*
X346074Y150347D01*
X346097Y150230D01*
X346117Y150113D01*
X346133Y149994D01*
X346145Y149875D01*
X346153Y149756D01*
X346157Y149637D01*
X346157Y149517D01*
X346153Y149398D01*
X346145Y149279D01*
X346133Y149160D01*
X346117Y149041D01*
X346097Y148924D01*
X346074Y148807D01*
X346046Y148690D01*
X346015Y148575D01*
X345980Y148461D01*
X345941Y148348D01*
X345899Y148236D01*
X345853Y148126D01*
X345803Y148018D01*
X345750Y147911D01*
X345693Y147806D01*
X345633Y147702D01*
X345569Y147601D01*
X345502Y147503D01*
X345432Y147406D01*
X345358Y147312D01*
X345282Y147220D01*
X345202Y147131D01*
X345120Y147044D01*
X345035Y146960D01*
X344947Y146879D01*
X344857Y146802D01*
X344764Y146727D01*
X344668Y146655D01*
X344570Y146586D01*
X344470Y146521D01*
X344368Y146459D01*
X344264Y146400D01*
X344158Y146345D01*
X344050Y146294D01*
X343941Y146246D01*
X343830Y146201D01*
X343718Y146161D01*
X343604Y146124D01*
X343489Y146091D01*
X343374Y146061D01*
X343257Y146036D01*
X343140Y146014D01*
X343021Y145997D01*
X342903Y145983D01*
X342784Y145973D01*
X342664Y145967D01*
X342545Y145965D01*
D12*
X-353060Y-149606D02*
X-353060Y-166370D01*
X-327660Y-166370D02*
X-327660Y-149606D01*
X-302260Y-149606D02*
X-302260Y-166370D01*
X-276860Y-166370D02*
X-276860Y-149606D01*
X-251460Y-149606D02*
X-251460Y-166370D01*
X-226060Y-166370D02*
X-226060Y-149606D01*
X-200660Y-149606D02*
X-200660Y-166370D01*
X-175260Y-166370D02*
X-175260Y-149606D01*
X-149860Y-149606D02*
X-149860Y-166370D01*
X-124460Y-166370D02*
X-124460Y-149606D01*
X-99060Y-149606D02*
X-99060Y-166370D01*
X-73660Y-166370D02*
X-73660Y-149606D01*
X-48260Y-149606D02*
X-48260Y-166370D01*
X-22860Y-166370D02*
X-22860Y-149606D01*
X2540Y-149606D02*
X2540Y-166370D01*
X2540Y113030D02*
X2540Y129794D01*
X-22860Y129794D02*
X-22860Y113030D01*
X-48260Y113030D02*
X-48260Y129794D01*
X-73660Y129794D02*
X-73660Y113030D01*
X-99060Y113030D02*
X-99060Y129794D01*
X-124460Y129794D02*
X-124460Y113030D01*
X-149860Y113030D02*
X-149860Y129794D01*
X-175260Y129794D02*
X-175260Y113030D01*
X-200660Y113030D02*
X-200660Y129794D01*
X-226060Y129794D02*
X-226060Y113030D01*
X-251460Y113030D02*
X-251460Y129794D01*
X-276860Y129794D02*
X-276860Y113030D01*
X-302260Y113030D02*
X-302260Y129794D01*
X-327660Y129794D02*
X-327660Y113030D01*
X-353060Y113030D02*
X-353060Y129794D01*
D13*
X-385826Y461394D02*
X-385826Y476634D01*
X-360426Y476634D02*
X-360426Y461394D01*
X-335026Y461394D02*
X-335026Y476634D01*
X-309626Y476634D02*
X-309626Y461394D01*
X-284226Y461394D02*
X-284226Y476634D01*
X-425926Y230434D02*
X-425926Y215194D01*
X-400526Y215194D02*
X-400526Y230434D01*
X-375126Y230434D02*
X-375126Y215194D01*
X-349726Y215194D02*
X-349726Y230434D01*
X-324326Y230434D02*
X-324326Y215194D01*
X-298926Y215194D02*
X-298926Y230434D01*
X-273526Y230434D02*
X-273526Y215194D01*
D12*
X-153162Y202184D02*
X-136398Y202184D01*
X-51562Y202184D02*
X-34798Y202184D01*
D14*
X-428325Y-194824D03*
X-356483Y-266666D03*
D15*
X210058Y-128016D03*
X260858Y-128016D03*
D16*
X229470Y463230D03*
X179470Y463230D03*
X281470Y169230D03*
X127470Y169230D03*
D17*
X-189738Y-223774D03*
X-189738Y-325374D03*
D18*
X175006Y-227076D03*
X175006Y-125476D03*
D19*
X175768Y-261112D02*
X175768Y-280924D01*
X226060Y-280924D02*
X226060Y-261112D01*
X44450Y-260350D02*
X44450Y-280162D01*
X94742Y-280162D02*
X94742Y-260350D01*
X-127000Y-260858D02*
X-127000Y-280670D01*
X-76708Y-280670D02*
X-76708Y-260858D01*
X-293116Y-261112D02*
X-293116Y-280924D01*
X-242824Y-280924D02*
X-242824Y-261112D01*
X265938Y526034D02*
X265938Y545846D01*
X215646Y545846D02*
X215646Y526034D01*
X-198628Y524764D02*
X-198628Y544576D01*
X-248920Y544576D02*
X-248920Y524764D01*
X-96012Y272796D02*
X-96012Y252984D01*
X-36322Y273304D02*
X-36322Y293116D01*
X-155702Y293116D02*
X-155702Y273304D01*
X-155702Y395224D02*
X-155702Y415036D01*
X-36322Y415036D02*
X-36322Y395224D01*
D20*
X114808Y537972D02*
X114808Y563372D01*
X-135636Y563372D02*
X-135636Y537972D01*
D21*
X59436Y216916D02*
X59436Y203708D01*
X34036Y203708D02*
X34036Y216916D01*
X84836Y216916D02*
X84836Y203708D01*
D17*
X-24892Y-241046D03*
X-24892Y-342646D03*
D22*
X0Y165608D03*
X-101600Y165608D03*
M02*
