G04 EAGLE Gerber RS-274X export*
G75*
%MOMM*%
%FSLAX34Y34*%
%LPD*%
%INSoldermask Top*%
%IPPOS*%
%AMOC8*
5,1,8,0,0,1.08239X$1,22.5*%
G01*
%ADD10C,1.879600*%
%ADD11C,1.727200*%
%ADD12P,1.649562X8X337.500000*%
%ADD13P,1.649562X8X22.500000*%
%ADD14R,1.727200X1.727200*%
%ADD15P,1.649562X8X292.500000*%
%ADD16P,1.649562X8X112.500000*%
%ADD17C,2.184400*%
%ADD18C,2.743200*%
%ADD19C,1.524000*%
%ADD20P,1.649562X8X202.500000*%


D10*
X-353060Y-166370D02*
X-353060Y-149606D01*
X-327660Y-149606D02*
X-327660Y-166370D01*
X-302260Y-166370D02*
X-302260Y-149606D01*
X-276860Y-149606D02*
X-276860Y-166370D01*
X-251460Y-166370D02*
X-251460Y-149606D01*
X-226060Y-149606D02*
X-226060Y-166370D01*
X-200660Y-166370D02*
X-200660Y-149606D01*
X-175260Y-149606D02*
X-175260Y-166370D01*
X-149860Y-166370D02*
X-149860Y-149606D01*
X-124460Y-149606D02*
X-124460Y-166370D01*
X-99060Y-166370D02*
X-99060Y-149606D01*
X-73660Y-149606D02*
X-73660Y-166370D01*
X-48260Y-166370D02*
X-48260Y-149606D01*
X-22860Y-149606D02*
X-22860Y-166370D01*
X2540Y-166370D02*
X2540Y-149606D01*
X2540Y113030D02*
X2540Y129794D01*
X-22860Y129794D02*
X-22860Y113030D01*
X-48260Y113030D02*
X-48260Y129794D01*
X-73660Y129794D02*
X-73660Y113030D01*
X-99060Y113030D02*
X-99060Y129794D01*
X-124460Y129794D02*
X-124460Y113030D01*
X-149860Y113030D02*
X-149860Y129794D01*
X-175260Y129794D02*
X-175260Y113030D01*
X-200660Y113030D02*
X-200660Y129794D01*
X-226060Y129794D02*
X-226060Y113030D01*
X-251460Y113030D02*
X-251460Y129794D01*
X-276860Y129794D02*
X-276860Y113030D01*
X-302260Y113030D02*
X-302260Y129794D01*
X-327660Y129794D02*
X-327660Y113030D01*
X-353060Y113030D02*
X-353060Y129794D01*
D11*
X-385826Y461394D02*
X-385826Y476634D01*
X-360426Y476634D02*
X-360426Y461394D01*
X-335026Y461394D02*
X-335026Y476634D01*
X-309626Y476634D02*
X-309626Y461394D01*
X-284226Y461394D02*
X-284226Y476634D01*
X-425926Y230434D02*
X-425926Y215194D01*
X-400526Y215194D02*
X-400526Y230434D01*
X-375126Y230434D02*
X-375126Y215194D01*
X-349726Y215194D02*
X-349726Y230434D01*
X-324326Y230434D02*
X-324326Y215194D01*
X-298926Y215194D02*
X-298926Y230434D01*
X-273526Y230434D02*
X-273526Y215194D01*
D10*
X-153162Y202184D02*
X-136398Y202184D01*
X-51562Y202184D02*
X-34798Y202184D01*
D12*
X-428325Y-194824D03*
X-356483Y-266666D03*
D13*
X210058Y-128016D03*
X260858Y-128016D03*
D14*
X229470Y463230D03*
X179470Y463230D03*
X281470Y169230D03*
X127470Y169230D03*
D15*
X-189738Y-223774D03*
X-189738Y-325374D03*
D16*
X175006Y-227076D03*
X175006Y-125476D03*
D17*
X175768Y-261112D02*
X175768Y-280924D01*
X226060Y-280924D02*
X226060Y-261112D01*
X44450Y-260350D02*
X44450Y-280162D01*
X94742Y-280162D02*
X94742Y-260350D01*
X-127000Y-260858D02*
X-127000Y-280670D01*
X-76708Y-280670D02*
X-76708Y-260858D01*
X-293116Y-261112D02*
X-293116Y-280924D01*
X-242824Y-280924D02*
X-242824Y-261112D01*
X265938Y526034D02*
X265938Y545846D01*
X215646Y545846D02*
X215646Y526034D01*
X-198628Y524764D02*
X-198628Y544576D01*
X-248920Y544576D02*
X-248920Y524764D01*
X-96012Y272796D02*
X-96012Y252984D01*
X-36322Y273304D02*
X-36322Y293116D01*
X-155702Y293116D02*
X-155702Y273304D01*
X-155702Y395224D02*
X-155702Y415036D01*
X-36322Y415036D02*
X-36322Y395224D01*
D18*
X114808Y537972D02*
X114808Y563372D01*
X-135636Y563372D02*
X-135636Y537972D01*
D19*
X59436Y216916D02*
X59436Y203708D01*
X34036Y203708D02*
X34036Y216916D01*
X84836Y216916D02*
X84836Y203708D01*
D15*
X-24892Y-241046D03*
X-24892Y-342646D03*
D20*
X0Y165608D03*
X-101600Y165608D03*
M02*
