M48
;GenerationSoftware,Autodesk,EAGLE,9.3.0*%
;CreationDate,2019-05-23T13:40:50Z*%
FMAT,2
ICI,OFF
METRIC,TZ,000.000
T5C0.813
T4C1.000
T3C1.016
T2C1.118
T1C1.321
%
G90
M71
T1
X-29312Y-27102
X-7671Y-27076
X-12700Y-27076
X9474Y-27026
X4445Y-27026
X22606Y-27102
X17577Y-27102
X-13564Y55067
X-15570Y40513
X11481Y55067
X-3632Y40513
X-15570Y28321
X-3632Y28321
X-9601Y26289
X-24892Y53467
X-19863Y53467
X21565Y53594
X26594Y53594
X-24282Y-27102
T2
X-4318Y20218
X-14478Y20218
T3
X-37513Y22281
X-34973Y22281
X-32433Y22281
X-29893Y22281
X-27353Y22281
X22947Y46323
X17947Y46323
X28147Y16923
X12747Y16923
X-38583Y46901
X-36043Y46901
X-33503Y46901
X-30963Y46901
X-28423Y46901
X-42593Y22281
X-40053Y22281
T4
X-35306Y-15799
X-32766Y-15799
X-30226Y-15799
X-27686Y-15799
X-25146Y-15799
X-22606Y-15799
X-20066Y-15799
X-17526Y-15799
X-14986Y-15799
X254Y12141
X254Y-15799
X-35306Y12141
X-32766Y12141
X-2286Y-15799
X-9906Y-15799
X-4826Y-15799
X-7366Y-15799
X-22606Y12141
X-12446Y-15799
X-30226Y12141
X-27686Y12141
X-25146Y12141
X-9906Y12141
X-20066Y12141
X-17526Y12141
X-14986Y12141
X-12446Y12141
X-7366Y12141
X-4826Y12141
X-2286Y12141
T5
X21006Y-12802
X26086Y-12802
X-42833Y-19482
X-35648Y-26667
X-18974Y-22377
X-18974Y-32537
X17501Y-12548
X17501Y-22708
X5944Y21031
X3404Y21031
X8484Y21031
X-2489Y-24105
X-2489Y-34265
X0Y16561
X-10160Y16561
M30